<svg width="149" height="141" viewBox="0 0 149 141" fill="none" xmlns="http://www.w3.org/2000/svg">
<path d="M68.5476 44.1097C69.9867 43.9034 74.3384 44.0397 75.9835 44.042L93.9026 44.1607L125.059 44.0713C127.588 44.0792 130.167 44.0991 132.663 44.1352C136.203 44.2442 140.097 43.5557 143.285 45.4609C147.03 47.6988 148.783 50.9388 148.732 55.2569C148.697 58.2261 148.704 61.2621 148.693 64.2302L148.681 83.4352L148.685 113.535C148.684 118.732 148.789 124.073 148.581 129.26C148.358 134.779 144.345 138.685 139.15 140.065C136.397 140.459 130.223 140.165 127.126 140.163L100.702 140.088L79.5805 140.039C76.5272 140.039 73.4742 140.04 70.4217 140.017C67.4607 139.995 65.5344 139.568 63.1224 137.819C57.3668 133.646 58.8137 125.127 58.8307 118.875L58.8471 97.2607L58.841 68.0529L58.8398 58.9322C58.8404 57.196 58.7701 55.309 58.9257 53.589C59.4088 48.2534 63.3996 44.8278 68.5476 44.1097ZM78.8411 133.842C97.9596 133.827 117.311 134.065 136.443 133.988C137.896 133.983 140.039 133.221 141.026 132.23C142.611 130.779 142.638 128.523 142.632 126.463L142.495 109.78C137.985 109.738 133.474 109.731 128.964 109.757C107.758 109.816 86.1911 110.032 65.0024 109.844C64.93 114.214 64.8855 118.584 64.8691 122.955C64.8618 125.251 64.7405 127.661 65.0607 129.925C65.5057 133.07 68.6666 134.029 71.4243 133.981C73.8931 133.938 76.3714 133.833 78.8411 133.842ZM64.8814 103.68L118.388 103.692C126.429 103.693 134.58 103.617 142.608 103.714L142.539 102.295C142.663 94.88 142.473 87.4849 142.516 80.0822C135.796 79.8885 128.732 79.999 121.972 79.9878C102.951 80.105 83.9302 80.0851 64.9098 79.9275C64.7888 87.4934 64.7502 96.1023 64.8814 103.68ZM64.9239 73.8413L99.8815 73.8033C113.801 73.7142 127.722 73.7326 141.642 73.8586L142.318 73.8569C142.639 73.5202 142.645 72.9741 142.619 72.5318C142.376 68.3669 142.676 64.239 142.568 60.051C142.481 56.6731 143.433 50.613 138.49 50.2852C135.38 50.1492 132.146 50.2556 129.019 50.2808C123.251 50.3329 117.483 50.3532 111.715 50.3411L84.3096 50.2805C79.1803 50.2553 73.1707 50.088 68.097 50.2503C67.0963 50.625 65.8866 51.1093 65.4111 52.1502C64.5044 54.1357 64.7959 70.6826 64.9239 73.8413Z" fill="#37DBFF"/>
<path d="M84.0983 113.72C88.5954 112.93 92.8854 115.923 93.6951 120.417C94.5049 124.911 91.5301 129.214 87.0403 130.043C82.5222 130.878 78.1862 127.881 77.3715 123.359C76.5564 118.837 79.5731 114.515 84.0983 113.72ZM86.3164 124.242C87.6392 123.836 88.383 122.436 87.9787 121.113C87.5741 119.79 86.1743 119.045 84.851 119.448C83.5265 119.853 82.7806 121.254 83.1854 122.579C83.5903 123.903 84.9925 124.648 86.3164 124.242Z" fill="#37DBFF"/>
<path d="M116.901 118.375C118.849 117.967 120.759 119.213 121.172 121.16C121.585 123.108 120.344 125.021 118.398 125.439C116.445 125.859 114.522 124.612 114.108 122.658C113.693 120.703 114.945 118.783 116.901 118.375Z" fill="#37DBFF"/>
<path d="M107.385 118.394C109.31 118.007 111.192 119.23 111.62 121.146C112.048 123.063 110.866 124.971 108.959 125.44C107.688 125.753 106.348 125.353 105.455 124.396C104.563 123.439 104.258 122.075 104.658 120.829C105.059 119.583 106.102 118.652 107.385 118.394Z" fill="#37DBFF"/>
<path d="M126.296 118.379C128.205 117.907 130.137 119.063 130.625 120.968C131.113 122.873 129.974 124.816 128.073 125.32C126.149 125.83 124.178 124.674 123.684 122.746C123.19 120.817 124.363 118.856 126.296 118.379Z" fill="#37DBFF"/>
<path d="M84.4852 83.6922C89.0506 83.1543 93.1884 86.4165 93.7307 90.9812C94.2733 95.546 91.0152 99.6871 86.451 100.234C81.8804 100.782 77.7323 97.518 77.1891 92.9471C76.646 88.3759 79.9137 84.2309 84.4852 83.6922ZM86.0218 94.4579C87.3666 94.1884 88.2548 92.9002 88.0281 91.5475C87.8016 90.1946 86.5421 89.2662 85.1828 89.4499C84.2643 89.5738 83.4865 90.1882 83.1528 91.0527C82.8194 91.9176 82.9832 92.8952 83.5802 93.6039C84.1773 94.3126 85.1131 94.6398 86.0218 94.4579Z" fill="#37DBFF"/>
<path d="M107.111 88.2273C109.046 87.7797 110.983 88.9662 111.464 90.8936C111.944 92.8214 110.791 94.7784 108.872 95.2917C107.601 95.6315 106.246 95.2595 105.327 94.3184C104.408 93.3771 104.067 92.0137 104.437 90.751C104.807 89.4886 105.829 88.5238 107.111 88.2273Z" fill="#37DBFF"/>
<path d="M116.788 88.3682C118.719 87.9232 120.645 89.1276 121.09 91.0583C121.534 92.9889 120.33 94.9146 118.399 95.359C116.469 95.8038 114.543 94.5994 114.099 92.669C113.654 90.7386 114.858 88.8132 116.788 88.3682Z" fill="#37DBFF"/>
<path d="M126.359 88.3663C127.617 88.0938 128.924 88.5195 129.78 89.4804C130.636 90.4414 130.908 91.7887 130.493 93.0069C130.077 94.2248 129.038 95.1248 127.773 95.3624C125.855 95.7227 124.003 94.475 123.616 92.5619C123.229 90.6485 124.451 88.7794 126.359 88.3663Z" fill="#37DBFF"/>
<path d="M84.5217 53.6814C89.0542 53.1198 93.1941 56.3119 93.8038 60.8383C94.4135 65.3647 91.2655 69.538 86.7459 70.1957C83.7793 70.6276 80.8094 69.4323 78.9687 67.0657C77.1283 64.6993 76.7009 61.5265 77.8499 58.7574C78.9986 55.9882 81.5466 54.0499 84.5217 53.6814ZM85.7214 64.4316C86.7365 64.3683 87.6084 63.6871 87.9157 62.7177C88.2227 61.748 87.9022 60.6892 87.1086 60.0526C86.6501 59.6849 86.0747 59.4933 85.487 59.5126C84.599 59.5419 83.7957 60.047 83.3849 60.8348C82.9739 61.6223 83.019 62.5703 83.503 63.3154C83.987 64.0604 84.8348 64.4869 85.7214 64.4316Z" fill="#37DBFF"/>
<path d="M126.289 58.3572C128.245 57.8322 130.258 58.9903 130.787 60.9462C131.317 62.9018 130.163 64.9168 128.208 65.4503C126.247 65.985 124.225 64.8269 123.694 62.8654C123.163 60.9037 124.326 58.8837 126.289 58.3572Z" fill="#37DBFF"/>
<path d="M107.251 58.3303C109.185 57.8387 111.155 58.9907 111.676 60.9169C112.196 62.8435 111.074 64.831 109.155 65.38C107.888 65.7424 106.525 65.3944 105.586 64.4695C104.648 63.5443 104.281 62.1855 104.626 60.9137C104.971 59.6422 105.974 58.6549 107.251 58.3303Z" fill="#37DBFF"/>
<path d="M116.83 58.3417C118.762 57.9052 120.687 59.0999 121.153 61.0253C121.62 62.9507 120.455 64.8937 118.537 65.3897C117.269 65.7172 115.924 65.3364 115.017 64.3933C114.109 63.4505 113.78 62.0914 114.155 60.8378C114.531 59.5839 115.553 58.63 116.83 58.3417Z" fill="#37DBFF"/>
<path d="M40.477 0.170861C41.9463 -0.1016 46.3666 0.0173483 48.0204 0.0841452C62.1485 0.654262 78.8369 0.876627 91.1094 8.73581C92.4843 9.61618 94.1319 11.8296 94.2131 13.5042C94.1384 17.7762 88.1817 20.432 85.0121 21.7594C75.0641 25.9255 64.6077 26.4628 54.0485 27.3455C40.8849 27.492 14.6035 26.9649 3.89404 19.13C2.29824 17.9629 0.39306 16.1415 0.161907 14.0784C0.00721998 12.7011 0.697754 11.2419 1.56963 10.2165C2.93867 8.60631 5.24228 7.40397 7.12695 6.51745C17.4254 1.67409 29.2938 0.950158 40.477 0.170861ZM14.6855 14.2386C18.6635 12.4615 22.8371 11.1601 27.12 10.3609C31.877 9.45856 36.6913 9.05485 41.5188 8.75954C42.5322 8.69743 44.3612 8.61979 45.1429 7.99343C45.4024 6.49518 41.4667 6.50397 40.4879 6.61881C32.085 7.24401 23.8727 8.01657 15.9143 10.9937C14.4216 11.5518 10.6452 12.6991 10.7524 14.9394C10.7694 15.293 10.9241 15.3616 11.1761 15.5289C12.3515 15.683 13.6924 14.8372 14.6855 14.2386Z" fill="#37DBFF"/>
<path d="M0.144373 21.7072C0.493592 21.9266 1.50756 22.8014 1.89193 23.1061C2.96771 23.9598 4.10678 24.7309 5.29916 25.4126C23.1014 35.4392 77.4691 35.6941 93.9744 22.3177C93.9082 23.2036 93.8797 24.2396 93.9008 25.129C94.0054 29.5986 93.6629 34.33 93.9867 38.7758C91.9171 38.8385 89.847 38.878 87.7766 38.8947L76.1337 38.8555C73.1396 38.8221 69.2542 38.5775 66.3814 39.13C64.0825 39.5692 61.9051 40.4979 59.997 41.8529C55.2073 45.297 54.1423 49.611 53.2543 55.0192L49.2802 55.0534C38.47 55.1267 9.41127 53.3355 1.74516 45.4883C1.01332 44.7392 0.530802 43.947 0.314005 42.9222C-0.242343 40.2928 0.105996 37.1246 0.125624 34.4235C0.163417 30.1848 0.169568 25.9458 0.144373 21.7072Z" fill="#37DBFF"/>
<path d="M0.318687 105.395C0.694858 105.552 0.977575 105.932 1.2723 106.214C10.9737 115.518 40.4106 116.649 53.4966 116.426C53.3033 118.237 53.39 121.566 53.4105 123.48C53.4899 130.946 52.8966 133.304 57.1438 139.528L57.0307 139.691C54.0588 139.713 51.087 139.705 48.1151 139.666C36.9515 139.451 10.1282 138.107 2.03724 129.56C1.3388 128.822 0.700132 127.921 0.436167 126.93C-0.183169 124.602 0.152578 121.867 0.155215 119.48C0.160488 114.776 0.163413 110.097 0.318687 105.395Z" fill="#37DBFF"/>
<path d="M0.117702 49.5392C1.99007 50.7055 3.48597 52.4733 5.73919 53.428C20.1858 59.5499 37.906 60.5056 53.4181 60.3201C53.3519 62.0153 53.7547 63.8191 53.6548 65.4067C53.2892 71.2195 53.4281 77.0284 53.4436 82.8559C53.1383 83.0976 52.855 83.0671 52.4419 83.0706C38.4237 83.1855 24.0902 82.5181 10.695 78.0152C8.10315 77.1439 0.985183 74.5423 0.393094 71.3879C-0.0393282 69.0828 0.112726 64.8491 0.129719 62.4225C0.176008 58.1282 0.172195 53.8335 0.117702 49.5392Z" fill="#37DBFF"/>
<path d="M0.151855 77.2452C5.38867 82.4809 12.5617 84.3292 19.6577 85.7284C30.7287 87.9114 42.2143 88.4308 53.4771 88.5972C53.3497 95.9821 53.5823 103.477 53.4947 110.911L53.2202 111.074C37.1058 111.11 16.1031 110.726 2.07461 101.575C-0.359086 99.9872 0.165032 95.8329 0.179973 93.1825L0.239152 83.2201C0.249113 81.3615 0.364843 79.0534 0.151855 77.2452Z" fill="#37DBFF"/>
</svg>
