<svg width="119" height="129" viewBox="0 0 119 129" fill="none" xmlns="http://www.w3.org/2000/svg">
<path d="M109.602 49.3919C109.616 48.1573 109.392 42.6671 109.775 42.0331C110.316 41.925 110.415 41.9851 110.937 42.1266C111.299 42.8909 111.176 48.2276 111.109 49.3351C112.631 49.3283 117.897 48.9264 118.722 49.9682C118.762 50.4557 118.799 50.216 118.528 50.6933C117.127 51.1816 112.819 50.9692 111.109 50.9566C111.233 53.3871 111.189 56.1255 111.199 58.5812C113.362 58.5647 115.995 58.4853 118.156 58.6128C118.468 58.631 118.417 58.6875 118.608 58.969C118.639 59.4144 118.698 59.557 118.507 59.9534C117.876 60.4383 112.258 60.2051 111.102 60.1942C111.231 62.6405 111.194 65.3054 111.204 67.7722C112.988 67.7432 116.965 67.5082 118.466 67.9394L118.67 68.4023C118.471 69.5051 116.976 69.4424 116.056 69.428C114.472 69.4037 112.76 69.4796 111.192 69.3024L111.195 76.9286C113.555 76.8337 116.34 76.8973 118.733 76.892C118.712 77.543 118.716 77.7492 118.571 78.3732C117.919 78.7392 112.214 78.6006 111.196 78.5244C111.194 81.0706 111.207 83.6165 111.235 86.1621C113.472 86.1401 115.848 86.0792 118.084 86.1574C118.491 86.1718 118.414 86.1829 118.607 86.4229C118.637 86.9361 118.697 87.1512 118.467 87.6123C117.601 87.9334 112.55 87.7582 111.19 87.7682L111.202 95.3373L118.684 95.342C118.685 95.903 118.757 96.513 118.42 96.9094C116.968 97.1065 112.855 96.9794 111.2 96.9662C111.204 98.9678 111.35 101.73 111.14 103.751C111.107 104.065 110.764 104.18 110.501 104.322C109.427 104.098 109.549 102.4 109.547 101.507C109.544 99.9955 109.572 98.4768 109.592 96.9647C107.105 96.9073 104.472 96.9472 101.974 96.9442C101.967 97.8882 102.081 103.588 101.803 103.858C99.8243 105.773 100.452 97.8882 100.466 96.9486C98.0337 96.7702 95.397 97.0515 92.8555 96.864C92.7781 97.824 92.9472 99.5941 92.3729 100.197C91.8145 100.417 92.0882 100.397 91.526 100.298C90.7959 99.5235 91.3821 98.0947 91.1082 97.1065C91.0335 96.8376 90.7865 96.8083 90.4569 96.6457C90.3409 96.249 90.369 96.2645 90.4786 95.857C90.5709 95.7592 91.0839 95.1984 91.0868 95.1264C91.1721 92.9001 91.1354 89.9133 91.1311 87.7603C88.3405 88.8457 86.433 88.183 83.5203 88.4473C83.4321 89.9511 83.8604 94.3143 83.0064 95.2128C82.5192 95.25 82.7431 95.2995 82.3142 95.0473C81.6049 93.9278 81.8981 89.9689 81.9178 88.4458C79.4015 88.2844 76.7401 88.3547 74.2206 88.4016C74.261 89.7976 74.8188 94.5076 73.5497 95.1788C73.0051 95.0619 73.216 95.1914 72.8536 94.8548C72.4725 93.7175 72.6269 89.9033 72.643 88.4637C70.2213 88.3784 67.5386 88.4376 65.097 88.4438C65.024 90.467 65.208 93.1969 64.9643 95.1419C64.7147 95.1773 64.0268 95.3071 63.8358 95.0388C63.045 93.9281 63.415 92.1759 63.3945 90.854C63.3828 90.0967 63.4341 89.1888 63.4537 88.3863C61.4645 88.4549 58.9294 88.3737 56.8543 88.4048C46.6493 88.4857 36.444 88.4977 26.2388 88.4408L26.252 77.6253L29.2159 76.3799C29.1298 79.3099 29.1849 82.5316 29.1702 85.4936C33.3242 85.3913 37.9599 85.5589 42.1936 85.5416L87.34 85.4625C87.3635 81.6817 87.3647 77.9007 87.3436 74.1196L78.4464 74.1287C78.4634 75.5821 78.3702 76.7587 78.51 78.2493L75.5806 78.2581C75.5056 76.8542 75.5032 75.5496 75.5018 74.1478C74.5054 74.1067 73.4293 74.1278 72.4256 74.1299C72.3922 75.5042 72.4523 76.9647 72.4684 78.351C72.0702 78.3604 71.6718 78.3633 71.2736 78.3601C69.1077 78.3234 69.7206 75.7825 69.7341 74.173C68.905 74.2512 67.6209 74.2154 66.7525 74.2157L66.8132 78.1834L63.8982 78.2156C63.7944 76.8709 63.7865 75.5648 63.7666 74.2184C62.8062 74.1589 61.7694 74.2254 60.8032 74.2611L60.8047 78.2104L58.0848 78.2142C57.7593 76.865 57.8331 75.6041 57.8712 74.2263C56.8511 74.2257 55.8313 74.2113 54.8117 74.1832C54.8193 75.4895 54.7124 76.928 54.7939 78.2162L52.006 78.2221C51.9808 76.8841 51.9433 75.5467 51.8937 74.2096C51.0564 74.1226 49.8521 74.1691 48.9403 74.1296C48.8712 75.6264 48.7792 76.7253 48.9368 78.2238L46.0326 78.2212L46.013 74.2403L42.9617 74.2614C42.9878 75.5238 42.9477 76.9181 42.9389 78.191L40.0991 78.1878C40.0224 76.8105 40.0353 75.4846 40.0394 74.1076L36.9389 74.2758L36.9017 78.1831C35.9697 78.1576 34.949 78.1781 34.0095 78.1778L34.0054 74.7076C36.3784 73.851 39.6708 71.9883 41.8549 71.4319C43.6464 70.9758 48.6207 71.2963 50.7327 71.3177C54.9688 71.3643 59.2054 71.3473 63.4411 71.267L63.4487 69.3475C61.5348 69.1573 57.4391 69.4734 56.2024 69.1526C55.9382 68.7949 55.8887 68.1252 56.1187 67.7429C57.3755 67.5542 61.9256 67.7054 63.4689 67.7502C63.4792 65.2371 63.5041 62.724 63.5434 60.2112C62.59 60.1866 56.5115 60.382 56.2341 60.0639C54.2817 57.8262 62.4588 58.5867 63.5047 58.6066L63.4818 50.9663L61.3505 50.9367C62.1198 50.1425 62.5804 49.6594 63.4458 48.9838C63.8287 47.6244 64.0394 47.4647 65.0442 46.5343L65.0565 49.34C67.5365 49.4062 70.1932 49.362 72.6866 49.3647C72.6529 47.3224 72.4936 44.4727 72.7235 42.4342C72.7604 42.1069 72.9693 42.0621 73.2239 41.915C73.6238 41.9839 73.6139 41.9566 73.9177 42.2156C74.3729 43.3808 74.1696 47.9139 74.1494 49.4405C76.485 49.3362 79.5714 49.3705 81.9172 49.4168C81.8999 48.1799 81.6682 42.9176 82.1621 42.0999C82.6045 42.0773 82.9476 42.0088 83.3422 42.1904C83.622 43.1575 83.5033 48.1459 83.4564 49.384C86.0182 49.3629 88.5802 49.3711 91.1419 49.4086C91.1252 47.8327 90.9069 43.3412 91.3812 42.1257C91.8031 41.8831 91.5764 41.947 92.0961 41.971C93.1704 42.8194 92.694 47.8658 92.6141 49.3535L100.494 49.3617C100.457 48.3211 100.173 42.5859 100.73 42.0621C101.208 42.0522 101.233 42.0489 101.699 42.1462C102.191 42.9533 101.986 48.1459 101.975 49.3585C104.518 49.3523 107.06 49.3635 109.602 49.3919ZM92.7441 76.9822C95.3545 77.0619 97.9162 77.0033 100.515 77.037L100.495 69.3346C97.9402 69.2341 95.3065 69.2727 92.7441 69.2792V76.9822ZM81.6374 58.594L81.8735 58.5003C82.0303 56.8529 81.945 52.691 81.9222 50.9435C79.4861 50.886 77.0495 50.8679 74.6132 50.889L74.2716 50.9528C74.019 51.6935 74.1606 57.3606 74.1453 58.5987L81.6374 58.594ZM100.4 58.3128L100.464 50.9684C97.8647 50.7469 95.1567 51.0135 92.6337 50.8655C92.6483 53.417 92.7125 56.0499 92.6709 58.5899C93.655 58.5923 100.036 58.7227 100.381 58.4168L100.4 58.3128ZM101.973 77.0596L109.617 77.0224C109.563 74.4272 109.67 71.9103 109.585 69.3082L101.969 69.2927C101.94 71.8816 101.941 74.4709 101.973 77.0596ZM100.473 67.8272C100.476 65.3329 100.519 62.7015 100.449 60.2188C97.8808 60.1954 95.3123 60.1863 92.7436 60.1919C92.743 62.7103 92.7119 65.2884 92.7456 67.8012C95.2467 67.8079 97.9933 67.7558 100.473 67.8272ZM83.5118 58.6831C85.4489 58.4892 89.073 58.5835 91.1492 58.5624C91.226 55.9321 91.2676 53.5822 91.1357 50.9499L83.513 50.8863L83.5118 58.6831ZM109.579 67.8185C109.597 65.2828 109.6 62.7469 109.587 60.2112L101.98 60.1896L101.977 67.8147L109.579 67.8185ZM92.7482 95.3194C95.3337 95.3572 97.9194 95.3499 100.505 95.2969C100.529 92.7814 100.507 90.2657 100.44 87.7512C97.9174 87.7526 95.324 87.7858 92.8074 87.7433C92.7714 90.0694 92.881 93.126 92.7482 95.3194ZM72.6576 67.7689C72.6254 65.2538 72.6102 62.7387 72.6119 60.2232L64.9804 60.1849C65.0539 62.7135 65.0782 65.2436 65.0539 67.7733L72.6576 67.7689ZM92.7441 86.2107C95.2007 86.1946 97.9481 86.1164 100.382 86.1861C100.404 83.6186 100.411 81.0507 100.402 78.4831L92.7371 78.481L92.7441 86.2107ZM74.1784 67.7414L78.437 67.6708C79.4829 67.7057 80.4456 67.7309 81.4912 67.7142L81.7742 67.7379C82.0534 67.2431 81.9251 61.2495 81.9198 60.2139L74.1784 60.2361C74.1219 62.6971 74.1646 65.2723 74.1784 67.7414ZM72.6119 69.2868L65.0671 69.281L65.1137 71.3159C66.5422 71.3224 71.5461 71.4275 72.6535 71.2808C72.6342 70.6588 72.5894 69.8971 72.6119 69.2868ZM91.1372 77.1577L91.1328 69.2769L83.5306 69.2889L83.5156 71.2781C85.6942 71.2916 88.0578 71.2606 90.2208 71.3379C90.2193 72.5332 90.0582 76.0301 90.4358 76.9172C90.7669 77.1044 90.7587 77.0895 91.1372 77.1577ZM101.977 58.5618C104.513 58.5838 107.049 58.5867 109.585 58.5712C109.588 56.0531 109.619 53.4844 109.591 50.9713C108.224 50.9687 103.128 51.0507 101.974 50.8893C101.981 53.4061 102.03 56.0555 101.977 58.5618ZM109.681 87.7453L101.908 87.7485C101.957 90.2798 101.97 92.8113 101.949 95.3429C102.81 95.3484 109.139 95.4665 109.631 95.2881C109.546 92.7442 109.755 90.2801 109.681 87.7453ZM81.9222 69.322C79.364 69.2666 76.6947 69.3891 74.2051 69.3193C74.184 69.9542 74.1447 70.6582 74.1617 71.2875L81.928 71.3095L81.9222 69.322ZM109.588 86.1437L109.593 78.5352C107.052 78.501 104.511 78.4904 101.969 78.5039L101.97 86.1507C104.487 86.1469 107.077 86.1103 109.588 86.1437ZM65.0524 50.9563C65.0322 53.504 65.0334 56.052 65.0557 58.5996C66.3825 58.5926 71.6489 58.7681 72.6354 58.5352C72.541 56.023 72.7851 53.4897 72.6113 50.9798C70.0921 50.9476 67.5723 50.9396 65.0524 50.9563ZM91.192 86.1691C91.2436 85.0307 91.3508 79.3737 91.0476 78.5543C90.7698 78.4764 90.5044 78.3978 90.2226 78.3346C90.195 79.8097 89.9908 84.8997 90.4754 85.9863C90.8879 86.24 90.6626 86.1621 91.192 86.1691ZM83.5162 60.191C83.5139 62.6842 83.4723 65.289 83.5191 67.7728C86.0316 67.7842 88.6596 67.836 91.1627 67.7941L91.1431 60.2171L83.5162 60.191Z" fill="#37DBFF"/>
<path d="M73.1352 0.0301295C74.2075 -0.0217259 75.227 -0.0504326 76.2518 0.327497C78.7128 1.23482 86.6045 8.57398 87.6624 11.0197C88.2943 12.4807 88.2662 14.1134 87.6477 15.5733C87.2575 16.4947 86.6856 17.2022 86.042 17.9545C82.4455 22.1578 78.6008 26.2221 74.8365 30.2771L57.314 49.1935L46.0968 61.2615C44.3534 63.152 42.4626 65.6021 40.5419 67.2357C39.4945 68.126 36.6673 69.1262 35.2751 69.7136L28.6043 72.5455C25.3781 73.8422 22.1885 75.2291 19.04 76.7045C18.2695 76.1874 17.8432 75.8469 17.2576 75.1368C18.7283 67.9107 21.1661 59.3519 23.2145 52.2298C23.2751 52.0186 27.3521 47.7181 27.8364 47.1946L38.4961 35.6006L59.8057 12.3644C61.9886 9.99459 64.1127 7.58287 66.2786 5.19898C68.2734 3.00318 70.0655 0.576223 73.1352 0.0301295ZM31.976 56.6463C32.9188 57.5724 33.9761 58.6473 35.0443 59.4049L68.4205 22.913C67.5717 21.9659 66.5915 20.9912 65.588 20.2078C58.4044 27.9225 51.2622 35.6759 44.1615 43.4671C41.8084 46.0309 39.4406 48.5815 37.0587 51.1189C35.4398 52.838 33.4497 54.8361 31.976 56.6463ZM39.8077 63.7579C47.3947 55.5984 54.9386 47.3991 62.4389 39.1599C65.9941 35.262 69.6685 31.0356 73.2714 27.2452C72.8106 26.7987 71.2374 25.2213 70.8006 25.0128C64.5155 31.5984 58.4941 38.443 52.2624 45.0624C48.9635 48.5704 45.6919 52.1042 42.4479 55.6628C41.3235 56.8875 38.2119 60.1482 37.4528 61.4214C37.6962 62.0683 39.15 63.6131 39.8077 63.7579ZM29.8294 54.5724C32.6472 51.1886 36.392 47.3677 39.4116 44.0824L53.3712 28.8424C56.6487 25.2861 60.0978 21.6665 63.2841 18.0501C62.714 17.4342 61.6072 16.1677 60.8364 15.9146C57.8012 18.9966 55.1235 22.0582 52.2181 25.236L41.5614 36.7579L32.2939 46.8208C30.7136 48.5381 28.6221 50.6859 27.1842 52.4557C28.0567 53.1729 28.9385 53.8787 29.8294 54.5724ZM67.4906 8.54175C71.2142 11.9083 75.488 16.2462 79.2085 19.3599C79.5779 19.6945 79.669 19.9084 80.0598 19.9415C81.6395 18.5982 85.0286 15.1954 85.0341 13.1496C85.0394 11.1468 79.9839 7.33736 78.5648 5.794C77.3337 4.45572 75.6463 3.15171 73.899 2.9522C71.051 3.69019 69.4567 6.4233 67.4906 8.54175ZM24.5742 71.0724C23.6862 70.1777 22.9084 69.4757 21.9586 68.6425C21.6375 69.8036 21.0799 71.5456 20.8497 72.6641C21.5689 72.4007 22.1352 72.1948 22.8331 71.8614C23.3472 71.6384 24.104 71.3376 24.5742 71.0724ZM22.7179 65.4662C24.3307 66.8736 26.1486 68.5385 27.7977 69.8821C29.0191 69.0934 31.149 68.2482 32.552 67.6608C34.1856 66.9714 35.7404 66.302 37.4308 65.7503C33.4916 62.102 29.4442 58.5594 25.4909 54.9222L22.7179 65.4662ZM65.3956 10.821C64.4806 11.7963 63.7391 12.5786 63.0181 13.7132C66.7831 16.705 70.2099 20.0241 73.6734 23.3481C74.252 23.9033 74.9165 24.6152 75.5329 25.0986C76.2594 24.1784 77.1726 23.2459 77.8157 22.3737C73.896 18.7148 69.4315 14.2623 65.3956 10.821Z" fill="#37DBFF"/>
<path d="M72.6062 8.41431L72.9786 8.71811L72.9598 9.24985C73.1277 9.55776 73.0621 9.39722 73.0401 9.81089L72.533 9.55864C72.3815 8.90679 72.3745 8.91616 72.6062 8.41431Z" fill="#2B2B2B"/>
<path d="M24.6281 96.4349C27.3665 96.3321 31.0356 96.4883 33.8786 96.4897L55.2128 96.502L76.6561 96.4994C81.0498 96.4798 85.4417 96.3236 89.8403 96.4308C89.9663 99.8395 89.6004 104.631 89.9513 107.826C88.9869 107.795 87.9676 107.804 86.9982 107.797C86.8166 105.317 86.9103 101.879 86.9086 99.3192C82.5641 99.3482 78.1754 99.2975 73.8419 99.3702C73.795 101.668 73.778 103.966 73.7909 106.265C73.7797 111.512 73.7988 116.759 73.848 122.006C77.1003 121.852 77.3144 121.737 77.068 125.056C72.435 124.593 65.4278 124.906 60.7007 124.879L23.1542 124.935C22.9737 122.037 23.1313 118.931 23.1225 116.002L23.0291 96.5504L24.6281 96.4349ZM55.0781 99.3257L41.9153 99.3186C41.9197 106.768 42.0404 114.543 41.9103 121.965C42.9626 121.919 43.9693 121.916 45.0205 121.957C48.3799 122.086 51.7535 121.96 55.1124 122.017C55.0625 114.453 55.0511 106.89 55.0781 99.3257ZM58.0209 121.991C61.8196 121.973 67.3584 121.835 71.0285 122.079C70.7973 119.045 71.0296 115.975 71.027 112.959C71.0232 108.464 71.114 103.812 70.9983 99.328L57.9038 99.3098C57.8967 106.622 57.7801 114.782 58.0209 121.991ZM26.0176 122.023C29.8968 122.006 35.1767 121.802 38.9332 121.97C39.1098 121.569 38.9619 101.666 38.9888 99.3312L25.9781 99.3271C26.008 106.628 26.1568 114.77 26.0176 122.023Z" fill="#37DBFF"/>
<path d="M86.7505 110.716C91.5754 109.856 96.185 113.067 97.0501 117.891C97.9156 122.715 94.709 127.328 89.8859 128.198C85.056 129.069 80.435 125.857 79.5687 121.026C78.7024 116.195 81.9189 111.578 86.7505 110.716ZM89.5402 125.135C92.6451 124.481 94.649 121.454 94.039 118.34C93.4293 115.226 90.432 113.179 87.3095 113.744C85.2494 114.117 83.5495 115.57 82.8611 117.547C82.1729 119.524 82.6024 121.719 83.9858 123.291C85.3692 124.862 87.4915 125.567 89.5402 125.135Z" fill="#37DBFF"/>
<path d="M0 81.145C6.17637 81.2077 12.4348 81.1632 18.6141 81.1444L18.6267 84.1805C17.2397 84.0794 14.2972 84.2024 12.7515 84.2042L0.0184536 84.2247L0 81.145Z" fill="#37DBFF"/>
<path d="M81.6523 76.9488C83.3468 76.4748 85.1067 77.455 85.596 79.1455C86.0849 80.8356 85.1205 82.6043 83.4347 83.1085C81.7273 83.6194 79.9311 82.6397 79.4357 80.9279C78.9406 79.2161 79.9361 77.4287 81.6523 76.9488Z" fill="#37DBFF"/>
<path d="M6.948 74.2634C8.86929 74.3428 10.6957 74.3381 12.6187 74.3317C12.6087 75.2979 12.5288 76.3737 12.4763 77.3481C10.9335 77.3194 8.52886 77.269 7.05259 77.4638C6.96235 76.4944 7.00923 75.3061 6.948 74.2634Z" fill="#37DBFF"/>
</svg>
