<svg width="107" height="89" viewBox="0 0 107 89" fill="none" xmlns="http://www.w3.org/2000/svg">
<path d="M57.4849 0.147598C59.4109 0.0825587 66.7149 -0.479063 67.6187 1.12611C67.2326 3.49623 64.6981 9.32163 63.7008 11.8001L57.2851 27.9632C54.6941 34.5585 52.2589 41.2344 49.7063 47.845C48.3425 51.3767 47.0547 55.1607 45.5719 58.6204C44.3907 58.8653 37.1936 58.8752 36.0727 58.3022C35.536 57.3354 35.9412 55.6649 36.2954 54.6732C38.0479 49.7683 39.9387 44.8438 41.8225 39.9893L51.1448 16.0473C52.1632 13.4323 56.3649 1.5849 57.4849 0.147598ZM38.5395 56.0815C39.6724 56.0595 42.9701 56.1216 43.8554 56.022C44.4537 53.905 45.7249 50.8681 46.5338 48.7552L50.8149 37.4885C55.2279 25.8052 59.797 14.1817 64.5214 2.62084L59.0532 2.59799C57.6683 6.67641 55.9307 10.993 54.4023 15.0594L38.5395 56.0815Z" fill="#37DBFF"/>
<path d="M72.377 11.5842C73.0344 11.661 73.5928 11.7855 74.1872 12.0899C79.274 14.6959 84.3107 17.5464 89.3533 20.2406L98.1594 24.8988C99.873 25.8234 102.258 27.0673 103.764 28.2421C103.775 30.4467 103.95 33.5537 103.522 35.673C103.405 36.2531 102.778 36.7303 102.279 37.0382C99.6603 38.6545 96.7458 40.1097 94.0274 41.581L80.1468 49.1973C70.9895 54.1183 71.341 54.8932 71.7014 43.4039C73.3643 41.6601 76.9801 40.0409 79.204 38.8555L87.0102 34.6294C88.4806 33.8458 89.9993 33.1456 91.4284 32.3012C88.0426 30.4962 84.631 28.5706 81.2548 26.731C78.5056 25.2328 74.1538 23.1014 71.7154 21.2235C71.5572 18.8885 71.5438 14.8807 71.813 12.4898C71.8391 12.2584 72.2161 11.7826 72.377 11.5842ZM74.2092 44.5778C74.203 46.2117 74.247 47.8456 74.3407 49.4768C75.3421 48.9134 76.7823 48.0389 77.7729 47.5508L93.5258 38.9258C95.4415 37.87 99.461 35.7972 101.152 34.6787L101.036 29.4987C92.8461 25.3438 84.841 20.6525 76.7079 16.3708C75.9245 15.9583 74.9879 15.4508 74.261 14.9499C74.2405 16.4083 74.1565 18.3512 74.242 19.7733C80.6888 23.7524 87.7262 27.1388 94.3736 30.7863C95.1799 31.2287 95.6425 31.7724 95.4453 32.7257C94.664 33.5871 93.0201 34.34 91.9733 34.9013C88.5181 36.7541 85.1047 38.6727 81.6529 40.5333C79.2119 41.8494 76.5368 43.0866 74.2092 44.5778Z" fill="#37DBFF"/>
<path d="M29.6065 11.3809C30.2944 11.3478 30.7078 11.3505 31.2466 11.8034C31.7929 12.6682 31.5413 19.2398 31.526 20.7389C30.0674 22.1206 24.9899 24.7629 22.9054 25.9078L12.203 31.8091C15.0802 33.2502 18.21 35.1012 21.075 36.6674C24.3817 38.4753 28.4906 40.5243 31.5518 42.605C31.5512 44.2476 31.7472 50.4348 31.5099 51.6146C31.2709 52.0154 30.7886 52.1279 30.326 52.3192C28.7616 51.8944 25.7915 50.1009 24.2982 49.2618C21.7933 47.9537 1.17097 36.88 0.550173 36.082C-0.231175 35.0774 -0.0524646 29.4158 0.303785 28.1405C0.462867 27.5716 0.92136 27.3041 1.38425 26.99C3.84138 25.3221 6.75086 24.0307 9.35681 22.5873C16.1004 18.8513 22.9227 15.22 29.6065 11.3809ZM2.70583 29.3355C2.66423 31.086 2.61325 32.5412 2.74772 34.2899C4.87585 35.7038 7.5029 36.9603 9.73972 38.2356C14.8766 41.1647 20.3894 43.8841 25.4672 46.8817C26.6874 47.5749 27.8959 48.2886 29.0921 49.0224L29.1067 44.0127C26.4776 42.614 8.69353 33.2678 8.42107 32.4261C8.28132 31.9948 8.30593 31.7338 8.42897 31.3098C9.75935 29.6962 26.1137 21.2818 29.0912 19.471C29.0979 18.6882 29.1662 15.2596 29.0387 14.6613C23.3147 17.7088 17.6844 20.8928 12.0489 24.0972C9.03484 25.8111 5.59567 27.4825 2.70583 29.3355Z" fill="#37DBFF"/>
<path d="M78.1695 62.7091C81.8975 62.3256 81.0084 65.5816 80.6706 68.1597C79.726 68.3124 78.623 68.3256 77.653 68.3648C76.8681 71.6188 78.0054 72.4427 76.0967 75.5121C78.217 78.4755 76.876 79.5911 77.9934 82.6058C78.161 83.0581 80.2748 82.8601 80.4438 83.4354C81.9971 88.7273 80.0594 89.1893 75.5047 88.1812C70.7955 86.4117 71.3946 83.9358 71.0873 79.8082C70.2016 78.4075 69.374 78.3199 67.7931 77.7586C67.7222 75.7222 67.1577 72.4599 69.7302 72.7661C70.6042 72.8226 70.9894 71.6475 71.0325 70.9916C71.3978 65.46 71.6592 63.2974 78.1695 62.7091ZM73.7644 67.3025C73.7293 68.1665 73.6666 69.2256 73.656 70.0743C73.6144 73.4499 72.9922 74.2353 70.0045 75.5279C70.3754 76.1051 72.096 76.4607 72.5129 76.9491C73.9045 78.5777 73.7612 81.781 73.7624 83.777C74.6149 84.8478 74.8519 85.1619 76.1521 85.6913L76.344 85.7719C76.3827 85.7871 76.4214 85.8026 76.46 85.8182C77.1804 85.916 77.5499 86.0229 78.2547 85.8387L78.3743 85.6245C77.2929 85.0163 75.6585 84.8174 75.2949 83.6054C74.805 81.9732 75.309 79.6436 74.6594 78.1125C74.3196 77.3118 73.216 76.3831 72.6872 75.4608C76.9135 71.2069 73.5418 70.7572 75.5035 67.0268L75.6576 66.929C76.4061 66.4623 77.5103 66.0434 78.0201 65.6194L77.9802 65.4114C77.6304 65.3203 77.6161 65.2974 77.2613 65.3177C75.5955 65.7474 74.8636 65.9042 73.7644 67.3025Z" fill="#37DBFF"/>
<path d="M94.696 62.6729C98.3365 62.5455 102.469 63.1836 103.014 67.5978C103.199 69.0948 102.905 70.6388 103.602 72.045C104.26 73.3722 105.703 72.4645 106.442 73.5673C106.912 74.3164 106.799 76.3558 106.642 77.2256C106.369 78.7279 104.583 78.0808 103.843 78.7045C102.462 79.8685 103.092 82.7469 102.666 84.3881C102.204 86.1679 101.701 86.6688 100.285 87.5721C99.9138 87.7423 99.535 87.8949 99.1492 88.0294C98.0242 88.4205 95.4718 88.7639 94.3454 88.2207C92.9072 87.527 93.2242 84.2337 93.9484 83.1063C95.3359 82.4583 96.9021 83.8159 96.8177 80.6885C96.7585 78.4974 97.0064 77.4491 98.1299 75.5902C96.4831 73.221 97.111 71.3885 96.4805 68.6961L96.4295 68.4822C95.7112 68.3976 93.903 68.3876 93.6774 67.5954C93.3197 66.3389 93.3709 64.6074 93.7562 63.35C93.876 62.9589 94.3544 62.806 94.696 62.6729ZM98.4759 66.6119C100.739 70.6842 97.3184 71.0155 101.706 75.6784C97.5979 79.5248 100.368 79.7917 98.6075 84.1197C98.4235 84.5724 96.1823 85.3104 95.9063 85.7738C96.4498 86.087 97.1127 85.9241 97.7414 85.8201C103.763 84.3846 96.8567 78.2041 104.314 75.8202C102.854 74.9712 101.148 74.2145 100.833 72.408C100.235 68.9744 101.622 65.1324 96.5195 65.2244L95.9142 65.3111L95.8351 65.5285C96.4468 65.9999 97.5036 66.0277 98.4759 66.6119Z" fill="#37DBFF"/>
<path d="M90.4189 62.1658C90.8405 62.1436 91.2475 62.1354 91.6192 62.3735C91.9096 62.5599 92.1044 62.7951 92.153 63.1464C92.2345 63.732 85.4727 86.259 84.7277 88.066C84.5982 88.3804 84.3929 88.635 84.164 88.882C83.4214 88.9297 83.1346 88.971 82.5662 88.5321C82.2044 87.8615 82.8349 85.3959 83.1094 84.7531C84.6439 81.157 88.5844 63.8577 90.4189 62.1658Z" fill="#37DBFF"/>
</svg>
